# xmcd
#
# Track frame offsets: 
#        150
#        15857
#        39709
#        58021
#        86180
#        109522
#        125794
#        143824
#        161611
#        189098
#        210025
#        231742
#        246149
#
# Disc length: 3673 seconds
#
# Revision: 0
# Processed by: cddbd v1.5.2PL0 Copyright (c) Steve Scherf et al.
# Submitted via: ExactAudioCopy v0.99pb3
#
DISCID=aa0e570d
DTITLE=Hollywood Fats and The Paladins - Recorded Live
DYEAR=2008
DGENRE=Blues
TTITLE0=Hideaway
TTITLE1=She's Fine
TTITLE2=I've Tried
TTITLE3=Lawdy Lawdy Miss Mary
TTITLE4=Whole Lotta Shakin'
TTITLE5=The Groove
TTITLE6=Rooster Blues
TTITLE7=Tear It Up
TTITLE8=That Will Never Do
TTITLE9=Let's Have A Party
TTITLE10=Mystery Train
TTITLE11=Sidetracked
TTITLE12=Goin' To Get My Baby
EXTD=
EXTT0=
EXTT1=
EXTT2=
EXTT3=
EXTT4=
EXTT5=
EXTT6=
EXTT7=
EXTT8=
EXTT9=
EXTT10=
EXTT11=
EXTT12=
PLAYORDER=
